<?xml version="1.0" ?><!DOCTYPE svg  PUBLIC '-//W3C//DTD SVG 1.1//EN'  'http://www.w3.org/Graphics/SVG/1.1/DTD/svg11.dtd'><svg enable-background="new 0 0 128 128" id="Слой_1" version="1.1" viewBox="0 0 128 128" xml:space="preserve" xmlns="http://www.w3.org/2000/svg" xmlns:xlink="http://www.w3.org/1999/xlink"><g><g><g><g><path d="M107,96.746H21c-1.654,0-3-1.346-3-3v-61c0-1.654,1.346-3,3-3h31.25c0.553,0,1,0.448,1,1s-0.447,1-1,1      H21c-0.552,0-1,0.449-1,1v61c0,0.551,0.448,1,1,1h86c0.552,0,1-0.449,1-1v-61c0-0.551-0.448-1-1-1H75.25c-0.553,0-1-0.448-1-1      s0.447-1,1-1H107c1.654,0,3,1.346,3,3v61C110,95.4,108.654,96.746,107,96.746z" fill="#323638"/></g></g><g><path d="M72.627,35.7H55.373c-1.268,0-2.258-0.386-2.864-1.116c-0.373-0.449-0.768-1.243-0.559-2.491l0.098-4.049     c0.042-1.957,1.649-3.326,3.91-3.326h16.084c2.261,0,3.868,1.369,3.91,3.328l0.098,4.046c0.209,1.248-0.186,2.042-0.559,2.491     C74.885,35.314,73.895,35.7,72.627,35.7z M55.958,26.719c-0.314,0-1.883,0.066-1.91,1.371l-0.116,4.286     c-0.08,0.429-0.041,0.742,0.115,0.93c0.208,0.25,0.691,0.394,1.326,0.394h17.254c0.635,0,1.118-0.144,1.326-0.394     c0.156-0.188,0.195-0.501,0.115-0.93l-0.017-0.159l-0.1-4.125c-0.027-1.308-1.596-1.374-1.91-1.374H55.958z" fill="#323638"/></g></g><g><g><path d="M68.56,23.254H59.44v-16h9.119V23.254z M61.44,21.254h5.119v-12H61.44V21.254z" fill="#323638"/></g><g><path d="M65.5,19.837h-3c-0.207,0-0.375-0.168-0.375-0.375s0.168-0.375,0.375-0.375h3     c0.207,0,0.375,0.168,0.375,0.375S65.707,19.837,65.5,19.837z" fill="#323638"/></g><g><path d="M65.5,17.837h-3c-0.207,0-0.375-0.168-0.375-0.375s0.168-0.375,0.375-0.375h3     c0.207,0,0.375,0.168,0.375,0.375S65.707,17.837,65.5,17.837z" fill="#323638"/></g></g><g><g><path d="M98.333,47.901H66.5c-0.276,0-0.5-0.224-0.5-0.5s0.224-0.5,0.5-0.5h31.833c0.276,0,0.5,0.224,0.5,0.5     S98.609,47.901,98.333,47.901z" fill="#323638"/></g><g><path d="M98.333,55.901H66.5c-0.276,0-0.5-0.224-0.5-0.5s0.224-0.5,0.5-0.5h31.833c0.276,0,0.5,0.224,0.5,0.5     S98.609,55.901,98.333,55.901z" fill="#323638"/></g><g><path d="M98.333,62.901H66.5c-0.276,0-0.5-0.224-0.5-0.5s0.224-0.5,0.5-0.5h31.833c0.276,0,0.5,0.224,0.5,0.5     S98.609,62.901,98.333,62.901z" fill="#323638"/></g><g><path d="M98.333,69.901H66.5c-0.276,0-0.5-0.224-0.5-0.5s0.224-0.5,0.5-0.5h31.833c0.276,0,0.5,0.224,0.5,0.5     S98.609,69.901,98.333,69.901z" fill="#323638"/></g></g><g><g><g><path d="M43.091,67.146c-0.106,0-0.213-0.005-0.322-0.013c-0.093-0.007-0.188-0.014-0.289-0.014h-0.637      c-0.102,0-0.196,0.007-0.289,0.014c-1.042,0.077-1.817-0.05-4.496-3.302c-0.158-0.191-0.292-0.403-0.396-0.631l-1.959-4.237      c-0.502,0.031-1.034-0.182-1.512-0.588c-0.572-0.485-1.04-1.24-1.317-2.125c-0.276-0.882-0.349-1.846-0.197-2.645      c0.176-0.929,0.623-1.55,1.261-1.75c0.02-0.006,0.079-0.02,0.1-0.024c0.264-0.048,0.534,0.122,0.59,0.387      s-0.099,0.524-0.361,0.586c-0.01,0.002-0.042,0.009-0.051,0.01c-0.239,0.076-0.455,0.443-0.556,0.976      c-0.122,0.642-0.06,1.429,0.17,2.159c0.221,0.708,0.58,1.298,1.009,1.662c0.203,0.173,0.603,0.443,1.004,0.318      c0.226-0.058,0.507,0.047,0.608,0.265l2.12,4.585c0.068,0.15,0.156,0.289,0.26,0.414c2.491,3.025,3.027,2.983,3.654,2.941      c0.115-0.008,0.233-0.016,0.359-0.016h0.637c0.126,0,0.244,0.008,0.359,0.016c0.627,0.041,1.163,0.083,3.654-2.94      c0.104-0.126,0.191-0.265,0.26-0.414l2.149-4.648c0.111-0.24,0.392-0.352,0.638-0.255c0.624,0.19,1.57-0.51,2.022-1.98      c0.225-0.732,0.282-1.52,0.157-2.161c-0.104-0.533-0.321-0.898-0.582-0.979c-0.265-0.081-0.412-0.361-0.331-0.625      c0.08-0.264,0.359-0.415,0.624-0.331c0.639,0.196,1.09,0.815,1.271,1.743c0.155,0.797,0.089,1.762-0.184,2.646      c-0.527,1.715-1.705,2.824-2.875,2.724L47.661,63.2c-0.104,0.227-0.238,0.439-0.396,0.631      C44.866,66.743,43.994,67.146,43.091,67.146z" fill="#323638"/></g><g><path d="M35.322,56.022c-0.243,0-0.456-0.178-0.493-0.426l-0.744-4.943c-0.089-0.265-0.388-1.323,0.171-2.3      c0.46-0.805,1.352-1.318,2.648-1.525c2.035-0.325,5.511,1.108,8.583,2.371c1.48,0.609,3.304,1.359,3.853,1.363      c0.115-0.144,0.307-0.218,0.498-0.176c0.266,0.059,0.436,0.317,0.384,0.584l-0.804,4.127c-0.054,0.271-0.323,0.445-0.587,0.395      c-0.271-0.053-0.448-0.315-0.396-0.586l0.656-3.369c-0.771-0.102-1.992-0.592-3.985-1.412c-2.804-1.153-6.293-2.587-8.044-2.309      c-0.983,0.157-1.636,0.505-1.938,1.034c-0.389,0.682-0.09,1.492-0.086,1.5c0.014,0.035,0.023,0.071,0.028,0.108l0.751,4.991      c0.041,0.273-0.146,0.527-0.42,0.569C35.372,56.021,35.348,56.022,35.322,56.022z" fill="#323638"/></g><g><path d="M51.49,52.879c-0.024,0-0.05-0.002-0.074-0.006c-0.273-0.041-0.462-0.294-0.421-0.568      c0.008-0.053,0.748-5.321-2.095-8.279c-1.564-1.627-3.951-2.281-7.097-1.942c-0.039,0.003-3.008,0.279-4.533,1.243      c-0.123,0.078-0.26,0.16-0.407,0.247c-1.653,0.985-4.422,2.635-3.366,8.706c0.048,0.272-0.135,0.531-0.406,0.579      c-0.268,0.045-0.531-0.135-0.578-0.407c-1.175-6.75,2.087-8.693,3.839-9.736c0.139-0.083,0.269-0.16,0.385-0.234      c1.731-1.093,4.838-1.38,4.97-1.392c3.461-0.371,6.129,0.384,7.919,2.248c3.183,3.316,2.394,8.881,2.358,9.116      C51.946,52.701,51.733,52.879,51.49,52.879z" fill="#323638"/></g><g><path d="M42.19,84.934c-6.855,0-13.126-2.73-17.657-7.688c-0.187-0.204-0.172-0.52,0.032-0.707      c0.204-0.186,0.521-0.171,0.706,0.032c4.34,4.748,10.348,7.362,16.919,7.362c6.323,0,12.423-2.624,16.774-7.208      c-0.071-0.403-0.196-1.043-0.294-1.33c-0.768-2.222-3.082-2.611-3.105-2.615c-0.037-0.006-0.073-0.016-0.108-0.03l-8.391-3.381      c-0.257-0.104-0.381-0.395-0.277-0.651s0.396-0.379,0.65-0.277l8.344,3.362c0.436,0.084,2.938,0.674,3.834,3.267      c0.17,0.5,0.355,1.609,0.376,1.734c0.025,0.153-0.021,0.309-0.127,0.422C55.315,82.125,48.873,84.934,42.19,84.934z" fill="#323638"/></g><g><path d="M24.903,77.409c-0.025,0-0.051-0.002-0.077-0.006c-0.272-0.042-0.46-0.297-0.418-0.57      c0.007-0.047,0.182-1.171,0.355-1.744c0.899-2.604,3.392-3.198,3.836-3.285l8.209-3.415c0.257-0.105,0.548,0.014,0.654,0.27      c0.105,0.255-0.015,0.547-0.27,0.653l-8.259,3.436c-0.036,0.015-0.075,0.026-0.113,0.032c-0.095,0.016-2.344,0.41-3.106,2.617      c-0.148,0.488-0.316,1.577-0.318,1.588C25.358,77.232,25.146,77.409,24.903,77.409z" fill="#323638"/></g><g><g><path d="M40.526,70.258" fill="none" stroke="#323638" stroke-linecap="round" stroke-linejoin="round" stroke-miterlimit="10"/></g></g><g><g><path d="M40.639,73.804c-0.149,0-0.293-0.067-0.389-0.185l-3.598-4.434c-0.129-0.159-0.147-0.381-0.047-0.56       l1.133-2.015c0.109-0.193,0.333-0.292,0.55-0.242c0.217,0.051,0.374,0.239,0.385,0.462c0.054,1.059,0.904,1.621,0.912,1.627       c1.092,0.708,2.812,1.323,2.829,1.329c0.137,0.049,0.245,0.154,0.298,0.29s0.044,0.287-0.023,0.415l-1.607,3.046       c-0.078,0.148-0.227,0.248-0.394,0.264C40.671,73.803,40.655,73.804,40.639,73.804z M37.644,68.819l2.906,3.582l0.99-1.877       c-0.634-0.252-1.698-0.709-2.498-1.228c-0.089-0.058-0.645-0.437-1.021-1.149L37.644,68.819z" fill="#323638"/></g><g><path d="M43.843,73.85c-0.016,0-0.031-0.001-0.048-0.002c-0.169-0.016-0.318-0.117-0.396-0.269l-1.593-3.092       c-0.066-0.128-0.073-0.279-0.021-0.413c0.053-0.134,0.161-0.239,0.297-0.287c0.018-0.006,1.74-0.623,2.83-1.329       c0.182-0.119,0.715-0.673,0.763-1.626c0.011-0.222,0.167-0.41,0.383-0.462c0.22-0.052,0.44,0.046,0.551,0.239l1.167,2.049       c0.101,0.177,0.084,0.397-0.042,0.557l-3.498,4.445C44.141,73.78,43.995,73.85,43.843,73.85z M42.951,70.526l0.979,1.903       l2.81-3.569l-0.387-0.678c-0.272,0.579-0.655,0.958-0.897,1.115C44.653,69.817,43.584,70.275,42.951,70.526z" fill="#323638"/></g></g></g></g><g><path d="M42.25,84.479c-0.276,0-0.5-0.224-0.5-0.5v-9.583c0-0.276,0.224-0.5,0.5-0.5s0.5,0.224,0.5,0.5v9.583    C42.75,84.255,42.526,84.479,42.25,84.479z" fill="#323638"/></g></g></svg>